<?xml version="1.0" encoding="utf-8"?>
<!-- Generator: Adobe Illustrator 27.5.0, SVG Export Plug-In . SVG Version: 6.00 Build 0)  -->
<svg version="1.1" xmlns="http://www.w3.org/2000/svg" xmlns:xlink="http://www.w3.org/1999/xlink" x="0px" y="0px"
	 viewBox="0 0 3710 3710" style="enable-background:new 0 0 3710 3710;" xml:space="preserve">
<g id="Background">
	<g>
		<g>
			<rect style="fill:#FFFFFF;" width="3710" height="3710"/>
		</g>
	</g>
</g>
<g id="Illustration">
	<g>
		<path style="fill:#F4F7FA;" d="M1122.39,537.317c-131.767,51.44-493.073,192.491-599.668,508.965
			c-172.65,512.582,458.476,1082.806,255.561,1320.704c-79.572,93.29-208.149,42.563-235.385,115.138
			c-60.969,162.459,483.435,682.77,1102.948,751.785c598.807,66.709,1388.208-274.801,1573.719-954.97
			c220.429-808.193-564.051-1536.146-1176.926-1740.62C1927.61,499.943,1545.057,372.311,1122.39,537.317z"/>
		<g>
			<g>
				<defs>
					<path id="XMLID_1_" d="M1974.948,2849.829c67.452,33.275,132.075-32.288,191.244-118.128
						c59.166-85.839,214.342-25.069,273.521-17.116c84.488,11.358,119.009,9.217,230.897-132.41
						c132.898-214.3,302.847-300.243,391.13-229c89.45,72.185,61.979,192.885-21.269,267.114
						c-41.415,36.931-11.158,77.918-25.391,129.075c-5.768,20.726-15.777,33.939-25.852,46.531
						c-58.768,73.45-173.405,11.051-249.073,71.757c-67.009,53.762-16.947,134.666-80.978,180.705
						c-58.004,41.703-114.122-13.87-300.823-0.31c-17.638,1.28-40.604,14.563-87.944,10.451
						c-55.718-4.843-145.233-21.91-204.622-1.65c-40.939-30.828-81.729-62.521-125.849-87.202
						c-36.724-33.146-71.727-68.203-105.327-104.555C1872.32,2842.386,1923.082,2824.242,1974.948,2849.829z"/>
				</defs>
				
					<linearGradient id="XMLID_00000144328719904236441000000013446468597674637981_" gradientUnits="userSpaceOnUse" x1="4853.0151" y1="2499.4419" x2="5389.9395" y2="3910.2566" gradientTransform="matrix(-0.9513 -0.3083 -0.3083 0.9513 8293.4902 1333.9811)">
					<stop  offset="0" style="stop-color:#FFC444"/>
					<stop  offset="0.9964" style="stop-color:#F36F56"/>
				</linearGradient>
				
					<use xlink:href="#XMLID_1_"  style="overflow:visible;fill:url(#XMLID_00000144328719904236441000000013446468597674637981_);"/>
				<clipPath id="XMLID_00000062884609295328408550000015896903213067387548_">
					<use xlink:href="#XMLID_1_"  style="overflow:visible;"/>
				</clipPath>
				<g style="clip-path:url(#XMLID_00000062884609295328408550000015896903213067387548_);">
					<g style="opacity:0.5;">
						<path style="fill:#FCFDFE;" d="M1789.483,3024.242l0.606,4.278c23.651-3.124,47.46-6.59,70.764-10.3
							c172.542-27.485,335.975-71.349,485.763-130.378c126.918-50.019,245.838-111.598,353.456-183.028
							c86.545-57.444,166.284-121.542,237.001-190.514c49.712-48.488,94.488-98.864,133.078-149.732
							c6.727-8.864,13.133-18.347,19.329-27.518c8.254-12.219,16.789-24.855,26.15-36.12l-3.032-2.921
							c-9.49,11.419-18.083,24.14-26.393,36.442c-6.164,9.126-12.539,18.562-19.197,27.335
							c-38.469,50.709-83.11,100.935-132.683,149.284c-70.541,68.802-150.092,132.747-236.437,190.058
							c-107.395,71.283-226.079,132.739-352.753,182.661c-149.534,58.93-312.707,102.723-484.983,130.164
							C1836.879,3017.662,1813.104,3021.123,1789.483,3024.242z"/>
						<path style="fill:#FCFDFE;" d="M2563.467,2782.104l1.803,3.908c153.974-78.244,443.887-8.58,446.797-7.867l0.785-4.202
							C3009.927,2773.227,2718.674,2703.235,2563.467,2782.104z"/>
						<path style="fill:#FCFDFE;" d="M2113.752,2959.863l1.374,4.092c110.798-39.842,191.394-264.468,192.196-266.732l-3.76-1.634
							C2302.767,2697.835,2222.819,2920.645,2113.752,2959.863z"/>
						<path style="fill:#FCFDFE;" d="M2048.905,2976.574l0.688,4.267c75.848-11.724,186.314,15.998,311.044,78.059
							c6.272,3.121,6.272,3.121,7.025,3.015l-0.638-4.275l0.319,2.137l0.445-2.079c-0.438-0.156-2.806-1.334-5.551-2.702
							C2236.795,2992.583,2125.519,2964.731,2048.905,2976.574z"/>
						<path style="fill:#FCFDFE;" d="M1832.553,3017.883l1.789,3.913c75.901-38.159,102.909-169.113,103.173-170.43l-3.927-1.026
							C1933.328,2851.64,1906.715,2980.598,1832.553,3017.883z"/>
						<path style="fill:#FCFDFE;" d="M2892.034,2550.94l2.001,3.798c83.208-48.698,181.709-78.811,214.077-88.706
							c7.836-2.396,10.59-3.248,11.497-3.726l-1.855-3.88c-0.697,0.355-5.176,1.724-10.847,3.457
							C3074.437,2471.809,2975.622,2502.019,2892.034,2550.94z"/>
						<path style="fill:#FCFDFE;" d="M2768.248,2651.956l2.938,3.03c61.36-68.717,54.428-261.944,54.104-270.136l-4.012,0.059
							C2821.355,2386.896,2828.462,2584.523,2768.248,2651.956z"/>
					</g>
				</g>
			</g>
			<g>
				
					<linearGradient id="SVGID_1_" gradientUnits="userSpaceOnUse" x1="5261.2163" y1="2395.9656" x2="6495.6221" y2="2395.9656" gradientTransform="matrix(-0.9982 -0.0596 -0.0596 0.9982 8385.2559 316.1386)">
					<stop  offset="0" style="stop-color:#FF9085"/>
					<stop  offset="1" style="stop-color:#FB6FBB"/>
				</linearGradient>
				<path style="fill:url(#SVGID_1_);" d="M1722.356,2935.277c6.588,13.412,73.282-27.941,179.91-18.934
					c26.64,2.25,172.788,4.446,212.116,107.065c7.634,19.92,15.271,39.84,22.905,59.76c51.253,1.81,99.894-5.981,96.252-73.121
					c-5.657-104.267,152.905-158.765,218.261-151.076c80.89,9.516,269.504,27.681,263.201-133.539
					c-5.246-134.216-35.066-220.958,111.428-278.45c146.496-57.492,210.237-173.896,152.353-313.666
					c-60.914-147.086,86.643-332.378-19.095-434.597c-184.248-178.106-446.874,123.92-452.76,415.837
					c-5.886,291.914-146.453,171.602-271.157,204.617c-11.403,3.721-28.793,10.369-47.831,22.111
					c-117.202,72.298-93.586,212.44-165.069,342.992C1925.385,2862.322,1711.256,2912.682,1722.356,2935.277z"/>
				<g>
					<defs>
						<path id="SVGID_00000029734366621400966750000016820563070454493850_" d="M1982.809,2757.407l114.789,326.363
							c50.551,4.243,140.009,1.273,135.94-73.724c-5.656-104.268,152.907-158.766,218.262-151.076
							c80.89,9.516,269.504,27.681,263.202-133.54c-5.247-134.216-35.067-220.957,111.429-278.448
							c146.495-57.492,210.235-173.897,152.352-313.667c-60.914-147.086,86.644-332.378-19.096-434.595
							c-184.247-178.108-446.871,123.919-452.758,415.835c-5.886,291.916-146.452,171.604-271.158,204.618
							c-170.249,45.072-52.977,271.019-97.011,355.265C2104.241,2740.482,2030.155,2754.587,1982.809,2757.407z"/>
					</defs>
					<clipPath id="SVGID_00000023262465843696249260000004973040723237878956_">
						<use xlink:href="#SVGID_00000029734366621400966750000016820563070454493850_"  style="overflow:visible;"/>
					</clipPath>
					<g style="opacity:0.5;clip-path:url(#SVGID_00000023262465843696249260000004973040723237878956_);">
						<path style="fill:#FCFDFE;" d="M2085.6,2894.666l3.737,6.504c446.529-262.045,758.255-753.518,813.528-1282.626l-7.12-1.128
							C2840.704,2144.295,2530.274,2633.71,2085.6,2894.666z"/>
						<path style="fill:#FCFDFE;" d="M2316.288,2729.598l2.456,7.083c193.235-64.063,404.315,60.196,406.425,61.46l3.365-6.389
							C2726.399,2790.47,2512.569,2664.526,2316.288,2729.598z"/>
						<path style="fill:#FCFDFE;" d="M2166.372,2844.077l5.356,5.174c138.419-155.112,32.737-538.027,31.653-541.876l-6.868,1.78
							C2197.585,2312.962,2302.159,2691.915,2166.372,2844.077z"/>
						<path style="fill:#FCFDFE;" d="M2647.574,2339.304l4.93,5.614c119.973-112.395,373.373-87.138,375.918-86.871l0.406-7.384
							C3026.251,2250.389,2769.763,2224.833,2647.574,2339.304z"/>
						<path style="fill:#FCFDFE;" d="M2796.091,2038.174l7.019,1.811c37.591-189.606-99.03-418.678-100.419-420.972l-6.021,3.733
							C2698.043,1625.009,2833.099,1851.523,2796.091,2038.174z"/>
					</g>
				</g>
			</g>
		</g>
		<g>
			<path style="fill:#BFC6D1;" d="M2841.77,1345.773c47.154,3.971,88.868-34.202,93.167-85.26
				c4.301-51.059-30.44-95.67-77.594-99.642c-2.444-0.205-4.862-0.23-7.271-0.215c-2.249-26.372-6.36-52.203-12.279-77.31
				c2.238-0.916,4.472-1.867,6.674-2.999c42.988-22.09,61.742-77.452,41.888-123.657c-19.853-46.206-70.795-65.754-113.783-43.665
				c-2.247,1.156-4.387,2.453-6.499,3.783c-14.035-21.194-29.577-41.151-46.495-59.707c1.564-2.034,3.102-4.103,4.529-6.311
				c27.301-42.231,18.072-99.953-20.614-128.922c-38.687-28.969-92.182-18.217-119.484,24.015c-1.398,2.165-2.637,4.391-3.845,6.632
				c-21.84-10.54-44.64-19.268-68.248-26.096c0.42-2.572,0.802-5.161,1.025-7.805c4.301-51.06,13.606-108.705-33.606-111.937
				c-109.214-7.479-132.856,46.496-137.157,97.555c-0.222,2.644-0.278,5.261-0.294,7.867c-24.418,2.784-48.357,7.575-71.653,14.313
				c-0.816-2.41-1.664-4.813-2.682-7.181c-19.853-46.203-16.269-77.026-61.393-59.713c-98.401,37.752-114.132,93.505-94.279,139.709
				c1.037,2.414,2.208,4.712,3.41,6.979c-19.782,15.463-38.445,32.542-55.826,51.09c-1.861-1.665-3.753-3.302-5.776-4.817
				c-38.686-28.969-92.182-18.217-119.483,24.018c-27.301,42.233-18.072,99.952,20.615,128.92c1.981,1.485,4.025,2.796,6.078,4.074
				c-10.035,23.764-18.408,48.542-25.037,74.168c-2.372-0.418-4.761-0.799-7.204-1.005c-47.155-3.971-88.868,34.2-93.169,85.26
				c-4.3,51.058,30.441,95.67,77.595,99.641c2.443,0.206,4.861,0.231,7.27,0.216c2.25,26.372,6.36,52.202,12.28,77.309
				c-2.24,0.917-4.472,1.867-6.674,2.997c-42.987,22.092-61.741,77.455-41.889,123.66c19.854,46.206,70.797,65.752,113.783,43.662
				c2.246-1.154,4.388-2.45,6.5-3.781c14.034,21.195,29.577,41.153,46.494,59.708c-1.564,2.034-3.101,4.103-4.529,6.311
				c-27.301,42.231-18.072,99.952,20.616,128.921c38.687,28.969,122.434,15.715,149.735-26.516
				c1.399-2.166-27.613-1.89-26.406-4.131c21.839,10.541,44.64,19.268,68.248,26.097c-0.42,2.571-0.803,5.161-1.025,7.805
				c-4.301,51.059,30.439,95.671,77.595,99.643c47.155,3.971,88.868-34.202,93.169-85.26c0.222-2.645,0.278-5.262,0.293-7.868
				c24.417-2.783,48.357-7.573,71.651-14.312c0.816,2.41,1.666,4.813,2.683,7.182c19.854,46.202,70.796,65.751,113.783,43.662
				c42.988-22.09,61.742-77.455,41.889-123.658c-1.037-2.415-2.208-4.713-3.409-6.979c19.782-15.464,38.444-32.542,55.826-51.09
				c1.859,1.666,3.754,3.302,5.775,4.815c38.687,28.969,92.182,18.219,119.484-24.016c27.302-42.233,18.072-99.952-20.615-128.924
				c-1.981-1.482-4.024-2.793-6.078-4.07c10.034-23.764,18.409-48.542,25.036-74.167
				C2836.938,1345.187,2839.326,1345.568,2841.77,1345.773z M2356.939,1549.88c-171.208-14.42-297.343-176.392-281.729-361.777
				c15.614-185.385,167.064-323.978,338.272-309.558c171.21,14.421,297.345,176.393,281.73,361.778
				C2679.598,1425.709,2528.149,1564.301,2356.939,1549.88z"/>
			<path style="fill:#BFC6D1;" d="M2844.467,1080.347c42.988-22.091,61.741-77.453,41.889-123.659
				c-19.854-46.205-70.796-65.754-113.784-43.663c-2.248,1.154-4.387,2.453-6.5,3.782c-14.034-21.195-29.577-41.151-46.495-59.707
				c1.564-2.033,3.102-4.104,4.528-6.312c27.301-42.231,48.277-126.002,6.823-150.849c-78.678-47.158-119.62,3.714-146.921,45.943
				c-1.398,2.165-2.638,4.39-3.846,6.63c-21.839-10.539-44.639-19.266-68.249-26.095c0.421-2.572,0.804-5.161,1.026-7.805
				c2.341-27.789-6.942-53.607-23.437-72.064c-10.511,79.84-20.416,159.751-29.526,239.752
				c146.937,36.988,249.397,185.867,235.235,354.021c-12.001,142.494-104.289,257.251-224.081,296.22
				c0.276,15.576,0.677,31.189,0.532,46.785c-0.391,42.324-3.136,84.738-5.923,127.113c11.622-2.349,23.115-5.149,34.452-8.429
				c0.816,2.412,1.666,4.814,2.683,7.182c19.853,46.205,64.21,74.296,143.303,37.179c43.753-20.533,32.222-70.97,12.367-117.175
				c-1.037-2.414-2.208-4.713-3.408-6.978c19.782-15.465,38.444-32.543,55.825-51.09c1.86,1.665,3.755,3.302,5.776,4.815
				c38.688,28.97,125.477,12.706,152.778-29.528c27.302-42.234-15.223-94.44-53.909-123.411c-1.982-1.484-4.025-2.795-6.079-4.073
				c10.035-23.762,18.408-48.542,25.037-74.165c2.374,0.419,4.762,0.8,7.205,1.003c47.155,3.974,88.868-34.202,93.169-85.26
				c4.3-51.058-30.441-95.672-77.596-99.641c-2.444-0.206-4.862-0.23-7.271-0.214c-2.249-26.372-6.361-52.204-12.279-77.309
				C2840.031,1082.43,2842.265,1081.478,2844.467,1080.347z"/>
			<path style="fill:#D8DEE8;" d="M2885.759,1333.478c47.154,3.972,88.867-34.2,93.168-85.259
				c4.301-51.06-30.441-95.672-77.596-99.642c-2.443-0.206-4.861-0.231-7.27-0.215c-2.249-26.373-6.36-52.204-12.279-77.311
				c2.238-0.917,4.473-1.867,6.674-2.999c42.988-22.09,61.742-77.452,41.889-123.657c-19.853-46.205-70.795-65.755-113.783-43.664
				c-2.247,1.156-4.387,2.453-6.499,3.783c-14.035-21.194-29.578-41.152-46.495-59.708c1.564-2.032,3.102-4.103,4.529-6.31
				c27.301-42.231,18.072-99.952-20.615-128.92c-38.687-28.97-92.182-18.216-119.483,24.014c-1.398,2.165-2.637,4.391-3.845,6.631
				c-21.84-10.54-44.64-19.267-68.249-26.095c0.42-2.573,0.803-5.162,1.026-7.807c4.301-51.059-30.441-95.671-77.596-99.641
				c-47.155-3.971-88.867,34.2-93.168,85.259c-0.223,2.645-0.278,5.262-0.295,7.868c-24.417,2.783-48.357,7.574-71.651,14.312
				c-0.817-2.411-1.666-4.813-2.682-7.181c-19.853-46.204-70.796-65.753-113.784-43.662c-42.987,22.09-61.741,77.454-41.888,123.657
				c1.038,2.416,2.207,4.713,3.41,6.978c-19.783,15.466-38.445,32.543-55.826,51.09c-1.86-1.664-3.754-3.3-5.776-4.817
				c-38.687-28.969-92.182-18.216-119.483,24.018c-27.302,42.234-18.072,99.952,20.615,128.922c1.982,1.484,4.025,2.795,6.079,4.073
				c-10.036,23.763-18.408,48.542-25.038,74.167c-2.372-0.418-4.761-0.798-7.203-1.004c-47.156-3.972-88.868,34.2-93.169,85.259
				c-4.3,51.06,30.44,95.67,77.595,99.643c2.443,0.206,4.861,0.23,7.27,0.215c2.25,26.373,6.36,52.204,12.279,77.31
				c-2.238,0.916-4.471,1.868-6.673,2.997c-42.988,22.093-61.742,77.453-41.888,123.66c19.853,46.205,70.796,65.752,113.783,43.662
				c2.246-1.154,4.388-2.451,6.5-3.781c14.034,21.194,29.576,41.152,46.494,59.708c-1.564,2.033-3.102,4.103-4.529,6.311
				c-27.301,42.231-18.072,99.952,20.616,128.921c38.688,28.969,92.182,18.217,119.483-24.015c1.399-2.165,2.638-4.391,3.846-6.631
				c21.838,10.54,44.64,19.267,68.248,26.095c-0.419,2.572-0.803,5.161-1.026,7.806c-4.3,51.059,30.441,95.67,77.596,99.642
				c47.155,3.971,88.869-34.201,93.167-85.26c0.224-2.644,0.279-5.261,0.295-7.867c24.417-2.783,48.358-7.573,71.651-14.313
				c0.816,2.411,1.667,4.813,2.682,7.181c19.854,46.203,70.796,65.751,113.783,43.661c42.988-22.089,61.742-77.454,41.889-123.656
				c-1.038-2.416-2.207-4.712-3.409-6.98c19.783-15.463,38.444-32.541,55.826-51.088c1.86,1.664,3.754,3.301,5.776,4.814
				c38.688,28.969,92.182,18.219,119.483-24.015c27.302-42.234,18.072-99.953-20.615-128.924c-1.982-1.481-4.024-2.793-6.079-4.071
				c10.035-23.763,18.408-48.542,25.037-74.167C2880.928,1332.892,2883.315,1333.272,2885.759,1333.478z M2400.928,1537.585
				c-171.209-14.42-297.343-176.392-281.729-361.777c15.614-185.385,167.064-323.978,338.272-309.558
				c171.208,14.42,297.344,176.391,281.729,361.777C2723.587,1413.412,2572.138,1552.005,2400.928,1537.585z"/>
		</g>
		<g>
			<path style="fill:#BFC6D1;" d="M3130.092,1971.076c19.343,1.629,36.453-14.029,38.217-34.973
				c1.764-20.944-12.486-39.243-31.828-40.872c-1.002-0.084-1.994-0.094-2.983-0.088c-0.922-10.818-2.609-21.413-5.037-31.712
				c0.918-0.376,1.834-0.766,2.738-1.23c17.633-9.061,25.326-31.77,17.182-50.723c-8.143-18.953-29.039-26.972-46.673-17.911
				c-0.922,0.474-1.8,1.006-2.666,1.552c-5.757-8.693-12.132-16.88-19.072-24.491c0.641-0.834,1.272-1.683,1.857-2.589
				c11.198-17.323,7.413-41-8.456-52.882c-15.869-11.883-37.812-7.472-49.011,9.851c-0.573,0.888-1.082,1.801-1.577,2.72
				c-8.958-4.323-18.311-7.903-27.995-10.704c0.172-1.055,0.329-2.117,0.421-3.202c1.764-20.944,5.581-44.589-13.785-45.915
				c-44.799-3.068-54.496,19.072-56.26,40.016c-0.091,1.085-0.114,2.158-0.121,3.227c-10.016,1.142-19.835,3.107-29.391,5.871
				c-0.334-0.989-0.683-1.974-1.1-2.945c-8.143-18.952-6.673-31.595-25.183-24.494c-40.363,15.486-46.815,38.355-38.672,57.307
				c0.426,0.991,0.906,1.933,1.399,2.863c-8.115,6.343-15.77,13.348-22.9,20.956c-0.763-0.683-1.54-1.354-2.369-1.976
				c-15.868-11.883-37.812-7.472-49.011,9.852c-11.198,17.324-7.413,40.999,8.456,52.882c0.813,0.609,1.651,1.147,2.493,1.671
				c-4.117,9.748-7.551,19.911-10.27,30.423c-0.973-0.172-1.953-0.328-2.955-0.412c-19.342-1.629-36.453,14.028-38.217,34.972
				c-1.764,20.944,12.486,39.243,31.829,40.872c1.002,0.084,1.994,0.094,2.982,0.088c0.923,10.818,2.609,21.413,5.037,31.711
				c-0.918,0.376-1.834,0.766-2.738,1.229c-17.633,9.062-25.325,31.771-17.182,50.724c8.144,18.953,29.04,26.971,46.673,17.91
				c0.921-0.473,1.8-1.005,2.666-1.551c5.757,8.694,12.132,16.88,19.071,24.491c-0.641,0.834-1.272,1.683-1.858,2.589
				c-11.199,17.323-7.413,40.999,8.457,52.882s50.221,6.446,61.419-10.876c0.574-0.888-11.326-0.775-10.831-1.695
				c8.958,4.324,18.311,7.904,27.995,10.705c-0.172,1.055-0.329,2.117-0.421,3.201c-1.764,20.944,12.486,39.243,31.829,40.873
				c19.342,1.629,36.452-14.029,38.217-34.973c0.091-1.085,0.114-2.158,0.12-3.227c10.016-1.142,19.836-3.107,29.391-5.871
				c0.335,0.989,0.683,1.974,1.1,2.946c8.144,18.952,29.04,26.97,46.673,17.909c17.634-9.061,25.326-31.771,17.182-50.723
				c-0.426-0.99-0.906-1.933-1.398-2.863c8.115-6.343,15.769-13.348,22.899-20.956c0.763,0.683,1.54,1.354,2.369,1.975
				c15.869,11.883,37.812,7.474,49.011-9.851c11.199-17.323,7.413-40.999-8.456-52.883c-0.813-0.608-1.651-1.146-2.493-1.669
				c4.116-9.748,7.551-19.911,10.27-30.423C3128.111,1970.835,3129.09,1970.991,3130.092,1971.076z M2931.22,2054.798
				c-70.228-5.915-121.967-72.354-115.562-148.397c6.404-76.043,68.528-132.892,138.755-126.977
				c70.229,5.915,121.968,72.354,115.563,148.397C3063.572,2003.864,3001.449,2060.713,2931.22,2054.798z"/>
			<path style="fill:#BFC6D1;" d="M3131.199,1862.201c17.633-9.062,25.325-31.77,17.182-50.724
				c-8.144-18.952-29.04-26.971-46.673-17.91c-0.922,0.473-1.8,1.006-2.666,1.551c-5.757-8.694-12.132-16.88-19.072-24.491
				c0.642-0.834,1.272-1.683,1.857-2.589c11.198-17.323,19.802-51.684,2.799-61.877c-32.273-19.344-49.067,1.523-60.266,18.845
				c-0.573,0.888-1.082,1.801-1.578,2.719c-8.958-4.323-18.31-7.902-27.995-10.704c0.173-1.055,0.33-2.117,0.421-3.202
				c0.96-11.398-2.848-21.989-9.614-29.56c-4.312,32.749-8.375,65.528-12.111,98.344c60.272,15.172,102.3,76.24,96.491,145.215
				c-4.923,58.45-42.778,105.521-91.916,121.506c0.113,6.389,0.278,12.793,0.219,19.191c-0.16,17.361-1.287,34.759-2.43,52.14
				c4.767-0.963,9.482-2.113,14.132-3.458c0.334,0.99,0.683,1.975,1.1,2.946c8.144,18.953,26.338,30.476,58.781,15.251
				c17.947-8.422,13.217-29.111,5.073-48.064c-0.425-0.99-0.905-1.933-1.398-2.863c8.115-6.343,15.769-13.348,22.899-20.956
				c0.763,0.683,1.54,1.354,2.369,1.975c15.869,11.883,51.469,5.212,62.668-12.112c11.199-17.324-6.244-38.738-22.113-50.622
				c-0.813-0.609-1.651-1.146-2.493-1.671c4.116-9.747,7.551-19.911,10.27-30.422c0.974,0.172,1.953,0.328,2.955,0.411
				c19.343,1.63,36.453-14.029,38.217-34.973c1.764-20.943-12.487-39.243-31.829-40.872c-1.002-0.084-1.994-0.094-2.982-0.088
				c-0.922-10.818-2.609-21.413-5.037-31.711C3129.379,1863.055,3130.296,1862.665,3131.199,1862.201z"/>
			<path style="fill:#D8DEE8;" d="M3148.136,1966.032c19.342,1.63,36.452-14.028,38.217-34.972
				c1.764-20.944-12.487-39.243-31.829-40.872c-1.002-0.084-1.994-0.095-2.982-0.088c-0.923-10.818-2.609-21.413-5.037-31.712
				c0.918-0.376,1.835-0.766,2.738-1.23c17.633-9.061,25.326-31.77,17.182-50.723c-8.144-18.953-29.039-26.972-46.673-17.911
				c-0.922,0.474-1.8,1.006-2.666,1.552c-5.757-8.693-12.133-16.88-19.072-24.491c0.642-0.834,1.272-1.683,1.858-2.589
				c11.199-17.323,7.413-40.999-8.456-52.882c-15.869-11.883-37.812-7.472-49.01,9.85c-0.574,0.888-1.082,1.801-1.578,2.72
				c-8.958-4.323-18.311-7.903-27.995-10.704c0.172-1.055,0.329-2.117,0.421-3.202c1.764-20.944-12.487-39.243-31.829-40.872
				c-19.343-1.629-36.453,14.028-38.217,34.972c-0.091,1.085-0.114,2.159-0.121,3.228c-10.016,1.141-19.835,3.107-29.39,5.871
				c-0.335-0.989-0.683-1.974-1.1-2.945c-8.143-18.953-29.039-26.971-46.672-17.91c-17.633,9.061-25.325,31.771-17.183,50.723
				c0.426,0.991,0.906,1.933,1.399,2.863c-8.115,6.343-15.77,13.349-22.899,20.956c-0.763-0.682-1.54-1.354-2.369-1.976
				c-15.869-11.883-37.812-7.472-49.01,9.852c-11.199,17.324-7.413,40.999,8.455,52.882c0.813,0.609,1.651,1.146,2.494,1.671
				c-4.117,9.747-7.551,19.911-10.271,30.422c-0.973-0.171-1.953-0.327-2.955-0.411c-19.343-1.63-36.453,14.028-38.217,34.972
				c-1.764,20.944,12.486,39.243,31.829,40.872c1.002,0.085,1.994,0.095,2.982,0.088c0.923,10.818,2.609,21.413,5.037,31.711
				c-0.918,0.376-1.834,0.766-2.737,1.23c-17.633,9.062-25.326,31.77-17.182,50.724c8.143,18.953,29.04,26.97,46.673,17.909
				c0.921-0.473,1.8-1.005,2.666-1.551c5.757,8.694,12.132,16.88,19.072,24.492c-0.642,0.834-1.272,1.683-1.858,2.589
				c-11.199,17.323-7.413,40.999,8.456,52.882c15.869,11.883,37.812,7.472,49.01-9.85c0.574-0.888,1.082-1.801,1.578-2.72
				c8.958,4.323,18.311,7.903,27.994,10.704c-0.172,1.055-0.329,2.117-0.421,3.202c-1.764,20.944,12.486,39.243,31.829,40.872
				c19.342,1.629,36.453-14.029,38.217-34.973c0.092-1.085,0.114-2.158,0.121-3.227c10.016-1.142,19.836-3.106,29.391-5.871
				c0.335,0.989,0.683,1.974,1.1,2.945c8.144,18.952,29.04,26.971,46.673,17.91c17.633-9.061,25.326-31.771,17.182-50.723
				c-0.426-0.991-0.906-1.933-1.398-2.863c8.115-6.343,15.769-13.348,22.899-20.956c0.763,0.682,1.54,1.354,2.369,1.974
				c15.869,11.883,37.812,7.474,49.011-9.85s7.413-41-8.456-52.883c-0.813-0.608-1.651-1.145-2.494-1.67
				c4.117-9.747,7.551-19.911,10.271-30.422C3146.155,1965.792,3147.134,1965.948,3148.136,1966.032z M2949.264,2049.755
				c-70.228-5.915-121.967-72.354-115.562-148.397c6.404-76.043,68.528-132.892,138.755-126.978
				c70.228,5.915,121.967,72.354,115.562,148.397C3081.615,1998.821,3019.493,2055.67,2949.264,2049.755z"/>
		</g>
		<g>
			
				<linearGradient id="SVGID_00000106122461073165512740000009643196981115409303_" gradientUnits="userSpaceOnUse" x1="3062.8728" y1="-121.1454" x2="1735.0518" y2="1216.5476" gradientTransform="matrix(0.999 0.0445 -0.0445 0.999 -185.4776 -138.2787)">
				<stop  offset="0" style="stop-color:#444B8C"/>
				<stop  offset="0.9964" style="stop-color:#26264F"/>
			</linearGradient>
			<path style="fill:url(#SVGID_00000106122461073165512740000009643196981115409303_);" d="M930.39,1748.234l190.697,225.097
				l53.228,19.354l3.631-9.046l194.487-204.442l14.269-9.406l-55.829-18.449l-82.391-0.639c-9.794-0.076-17.537-8.071-17.316-17.86
				l62.062-309.079l-54.706-16.152l-104.936,3.243c-6.841,0.211-12.937-3.685-15.559-9.938c-2.623-6.249-1.285-13.687,3.414-18.98
				l252.037-283.913c7.103-8.006,20.36-8.877,27.144-1.76l255.047,267.371c5.035,5.278,6.171,13.095,2.89,19.929
				c-3.274,6.83-10.336,11.382-18.004,11.619l-114.607,3.543l-3.661,154.475l58.258,17.593l371.913-23.635
				c161.529-2.269,302.484-125.624,309.216-275.136c3.364-74.718-25.958-143.416-82.067-192.951
				c-29.094-25.68-5.551-31.526-43.398-42.862c-6.679-2.001-70.677-16.508-77.461-18.016c-28.033-6.232-57.51-8.402-87.643-6.299
				c-4.595,0.321-9.156,0.736-13.691,1.248c-35.619,4.158-65.38-18.224-68.045-50.654
				c-22.231-270.898-254.117-447.362-524.835-413.278c-196.193,24.701-369.906,158.831-448.277,339.766
				c-9.914,22.905-32.02,37.679-54.974,36.876c-17.216-0.611-34.781,0.354-52.197,2.862
				c-150.679,21.667-272.368,161.195-281.742,317.945c-5.077,84.885,21.032,164.19,74.034,223.986
				c53.712,60.609,128.19,93.691,210.412,92.536l201.579-2.832c9.305-0.131,16.691,7.524,16.482,17.1l-3.368,154.213
				c-0.209,9.563-7.925,17.254-17.219,17.182L930.39,1748.234z"/>
			
				<linearGradient id="SVGID_00000044178207789379598710000000299758234302386612_" gradientUnits="userSpaceOnUse" x1="572.9905" y1="1274.3876" x2="2330.0107" y2="1274.3876">
				<stop  offset="0" style="stop-color:#FF9085"/>
				<stop  offset="1" style="stop-color:#FB6FBB"/>
			</linearGradient>
			<path style="fill:url(#SVGID_00000044178207789379598710000000299758234302386612_);" d="M2329.741,1289.137
				c-1.884,41.845-14.332,81.671-34.818,117.362c-53.098,92.65-160.403,157.647-278.592,159.025l-435.778,5.282l3.719-155.442
				l116.076-3.353c7.763-0.23,14.929-4.824,18.237-11.668c3.306-6.891,2.157-14.745-2.94-20.074l-258.29-269.497
				c-6.845-7.166-20.258-6.339-27.468,1.746l-255.165,285.207c-4.777,5.328-6.109,12.816-3.445,19.063
				c2.617,6.339,8.819,10.243,15.709,10.06l106.246-3.078l-7.487,327.191c-0.231,9.876,7.623,17.915,17.546,18.007l83.417,0.827
				l-212.402,222.874l-192.969-226.824l79.833,0.781c9.371,0.092,17.181-7.625,17.41-17.271l3.4-155.121
				c0.229-9.646-7.258-17.364-16.676-17.226l-203.948,2.435c-83.187,1.01-158.518-32.384-212.859-93.431
				c-53.605-60.265-80.018-140.054-74.875-225.4c9.51-157.601,132.613-297.747,285.024-319.336
				c17.638-2.48,35.416-3.445,52.825-2.802c8.543,0.322,16.994-1.47,24.712-5.099c13.321-6.063,24.576-17.363,30.914-31.879
				c79.329-181.9,255.12-316.626,453.786-341.246c274.138-33.945,509.045,143.958,531.554,416.671
				c2.709,32.613,32.843,55.213,68.947,51.079c4.594-0.505,9.232-0.918,13.872-1.24c79.833-5.42,155.076,18.557,211.345,67.983
				C2303.468,1144.672,2333.186,1213.895,2329.741,1289.137z"/>
			
				<linearGradient id="SVGID_00000087412661625891566810000004318001993481784509_" gradientUnits="userSpaceOnUse" x1="1139.2102" y1="1463.7467" x2="5653.6826" y2="1502.7606">
				<stop  offset="0" style="stop-color:#FF9085"/>
				<stop  offset="1" style="stop-color:#FB6FBB"/>
			</linearGradient>
			<path style="opacity:0.3;fill:url(#SVGID_00000087412661625891566810000004318001993481784509_);" d="M2294.923,1406.499
				c-53.098,92.65-160.403,157.647-278.592,159.025l-435.778,5.282l3.719-155.442l116.076-3.353
				c7.763-0.23,14.929-4.824,18.237-11.668c3.306-6.891,2.157-14.745-2.94-20.074l-258.29-269.497
				c-6.845-7.166-20.258-6.339-27.468,1.746l-255.165,285.207c-4.777,5.328-6.109,12.816-3.445,19.063
				c2.617,6.339,8.819,10.243,15.709,10.06l106.246-3.078l-7.487,327.191c-0.231,9.876,7.623,17.915,17.546,18.007l83.417,0.827
				l-212.402,222.874l-192.969-226.824l79.833,0.781c9.371,0.092,17.181-7.625,17.41-17.271l3.4-155.121
				c0.229-9.646-7.258-17.364-16.676-17.226l-203.948,2.435c-83.187,1.01-158.518-32.384-212.859-93.431
				c-53.605-60.265-80.018-140.054-74.875-225.4c9.51-157.601,132.613-297.747,285.024-319.336
				c17.638-2.48,35.416-3.445,52.825-2.802c8.543,0.322,16.994-1.47,24.712-5.099c5.006,6.247,9.923,12.632,14.7,19.109
				c43.223,58.337,87.596,132.704,168.809,136.609c79.006,3.766,151.077-49.242,223.93-71.428
				c91.594-27.837,182.267-22.6,259.62,38.309c77.815,61.276,128.71,149.654,206.936,210.609
				c63.344,49.333,139.227,77.216,218.648,86.357c81.718,9.463,166.053,5.466,242.533,40.882
				C2279.536,1397.587,2287.391,1401.813,2294.923,1406.499z"/>
		</g>
		<g>
			<g>
				<path style="fill:#26264F;" d="M2715.531,3050.521l-1954.446-16.659v49.293c0,13.379,8.525,24.755,20.07,26.783l552.659,97.066
					c6.559,1.152,13.21,1.458,19.828,0.911l1340.651-110.671c11.969-0.988,21.239-12.4,21.239-26.146V3050.521z"/>
				<g>
					<path style="fill:#26264F;" d="M2006.27,2971.528l-1224.975,90.176c-21.92,1.613-39.743-15.533-39.743-38.301v-912.204
						c0-22.769,17.823-41.227,39.743-41.227H2006.27c18.059,0,32.66,16.685,32.66,37.268v824.615
						C2038.93,2952.438,2024.329,2970.198,2006.27,2971.528z"/>
					
						<linearGradient id="SVGID_00000046299530096427069260000013024392961431187373_" gradientUnits="userSpaceOnUse" x1="761.0846" y1="2565.8901" x2="2058.4622" y2="2565.8901">
						<stop  offset="0" style="stop-color:#444B8C"/>
						<stop  offset="0.9964" style="stop-color:#26264F"/>
					</linearGradient>
					<path style="fill:url(#SVGID_00000046299530096427069260000013024392961431187373_);" d="M2025.802,2971.528l-1224.974,90.176
						c-21.921,1.613-39.743-15.533-39.743-38.301v-912.204c0-22.769,17.822-41.227,39.743-41.227h1224.974
						c18.059,0,32.66,16.685,32.66,37.268v824.615C2058.462,2952.438,2043.862,2970.198,2025.802,2971.528z"/>
					
						<linearGradient id="SVGID_00000123433797131146185090000011646833958204844160_" gradientUnits="userSpaceOnUse" x1="814.3706" y1="2557.3643" x2="2014.5883" y2="2557.3643">
						<stop  offset="0" style="stop-color:#AA80F9"/>
						<stop  offset="0.9964" style="stop-color:#6165D7"/>
					</linearGradient>
					<path style="fill:url(#SVGID_00000123433797131146185090000011646833958204844160_);" d="M1987.641,2913.391L846.705,2991.72
						c-17.838,1.224-32.334-12.849-32.334-31.436v-798.636c0-18.588,14.496-33.719,32.334-33.796l1140.936-4.918
						c14.897-0.064,26.947,13.608,26.947,30.539v727.414C2014.588,2897.816,2002.538,2912.369,1987.641,2913.391z"/>
					<path style="fill:#FFFFFF;" d="M1456.578,2094.923c0,8.476-6.305,15.367-14.091,15.392
						c-7.796,0.025-14.121-6.842-14.121-15.337c0-8.495,6.326-15.386,14.121-15.392
						C1450.273,2079.579,1456.578,2086.446,1456.578,2094.923z"/>
					<path style="opacity:0.48;fill:#FFFFFF;" d="M800.823,3061.703l1218.777-89.719l6.202-0.457
						c8.286-0.61,15.82-4.706,21.575-10.919c-87.705-4.8-142.18-35.924-177.32-68.084
						c-70.569-64.584-58.329-128.274-134.429-170.737c-94.918-52.964-169.552,14.148-241.579-52.068
						c-43.666-40.145-22.229-70.081-75.96-130.072c-59.512-66.445-98.257-44.11-158.066-103.911
						c-75.623-75.615-37.801-134.445-102.942-188.733c-79.025-65.861-164.249-4.903-239.474-68.065
						c-32.445-27.242-50.249-66.847-59.545-108.968h-57.234c-21.92,0-39.743,18.458-39.743,41.227v912.204
						C761.085,3046.169,778.904,3063.314,800.823,3061.703z"/>
				</g>
				
					<linearGradient id="SVGID_00000003084012591059672330000006182211307956841651_" gradientUnits="userSpaceOnUse" x1="761.0846" y1="3064.7356" x2="2715.531" y2="3064.7356">
					<stop  offset="0" style="stop-color:#444B8C"/>
					<stop  offset="0.9964" style="stop-color:#26264F"/>
				</linearGradient>
				<path style="fill:url(#SVGID_00000003084012591059672330000006182211307956841651_);" d="M2074.626,2966.526l-1313.542,94.918
					l572.729,100.591c6.559,1.152,13.21,1.458,19.828,0.912l1361.89-112.425l-620.01-83.351
					C2088.587,2966.239,2081.594,2966.023,2074.626,2966.526z"/>
				<polygon style="fill:#26264F;" points="952.751,3062.26 2046.314,2982.061 2384.762,3027.193 1300.619,3112.923 				"/>
			</g>
		</g>
		<g>
			
				<linearGradient id="SVGID_00000132066964688615507580000011488056739765404298_" gradientUnits="userSpaceOnUse" x1="1683.0681" y1="1600.9703" x2="2605.0691" y2="2485.4929">
				<stop  offset="0" style="stop-color:#AB316D"/>
				<stop  offset="1" style="stop-color:#792D3D"/>
			</linearGradient>
			<path style="fill:url(#SVGID_00000132066964688615507580000011488056739765404298_);" d="M2657.524,2040.982
				c0.67,303.524-160.665,551.223-447.987,559.37c-4.442,0.126-77.768-0.012-82.236-0.001
				c-293.515,0.715-532.008-248.564-532.688-556.781c-0.681-308.216,236.708-558.654,530.223-559.369
				c6.864-0.017,71.292,0.62,78.093,0.874C2486.969,1495.693,2656.858,1739.973,2657.524,2040.982z"/>
			
				<linearGradient id="SVGID_00000082341868042700856480000004430381976664434067_" gradientUnits="userSpaceOnUse" x1="2445.0137" y1="1717.3682" x2="1382.0126" y2="3314.3667">
				<stop  offset="0" style="stop-color:#FFC444"/>
				<stop  offset="0.9964" style="stop-color:#F36F56"/>
			</linearGradient>
			
				<ellipse style="fill:url(#SVGID_00000082341868042700856480000004430381976664434067_);" cx="2225.426" cy="2047.266" rx="531.457" ry="558.076"/>
			
				<linearGradient id="SVGID_00000113339616892913508290000003686645373676866194_" gradientUnits="userSpaceOnUse" x1="2496.0483" y1="1668.8163" x2="2176.697" y2="2115.4099">
				<stop  offset="0" style="stop-color:#FFC444"/>
				<stop  offset="0.9964" style="stop-color:#F36F56"/>
			</linearGradient>
			
				<ellipse style="opacity:0.3;fill:url(#SVGID_00000113339616892913508290000003686645373676866194_);" cx="2225.426" cy="2047.266" rx="518.068" ry="544.016"/>
			
				<linearGradient id="SVGID_00000031172161783601717150000007687562835864233149_" gradientUnits="userSpaceOnUse" x1="1893.0878" y1="1158.1321" x2="2374.3503" y2="2445.6968">
				<stop  offset="0" style="stop-color:#FFC444"/>
				<stop  offset="0.9964" style="stop-color:#F36F56"/>
			</linearGradient>
			
				<ellipse style="fill:url(#SVGID_00000031172161783601717150000007687562835864233149_);" cx="2225.426" cy="2047.266" rx="502.428" ry="527.593"/>
			
				<linearGradient id="SVGID_00000094614440463727064940000013695421185348886935_" gradientUnits="userSpaceOnUse" x1="1603.1572" y1="3695.4785" x2="2561.4993" y2="1112.5181">
				<stop  offset="0.0036" style="stop-color:#EBEFF2"/>
				<stop  offset="1" style="stop-color:#FFFFFF"/>
			</linearGradient>
			
				<ellipse style="fill:url(#SVGID_00000094614440463727064940000013695421185348886935_);" cx="2214.685" cy="2047.266" rx="491.687" ry="516.315"/>
			<g>
				
					<linearGradient id="SVGID_00000064327170003369344200000016517703277426183564_" gradientUnits="userSpaceOnUse" x1="2569.5066" y1="1662.661" x2="1999.438" y2="2809.2776">
					<stop  offset="0" style="stop-color:#FFC444"/>
					<stop  offset="0.9964" style="stop-color:#F36F56"/>
				</linearGradient>
				<path style="fill:url(#SVGID_00000064327170003369344200000016517703277426183564_);" d="M2266.598,2032.48l374.539,145.237
					c12.194-41.032,18.769-84.668,18.769-129.918c0-232.994-174.209-423.26-393.308-435.008V2032.48z"/>
			</g>
			<g style="opacity:0.54;">
				<path style="fill:#D8DEE8;" d="M2091.231,2035.551c-38.884-125.931,101.699-216.81,79.534-363.593
					c-9.781-64.769-47.842-117.839-94.648-160.413c-221.283,67.89-382.708,282.784-382.147,537.015
					c0.68,308.216,239.173,557.495,532.688,556.781c71.968-0.175,140.545-15.395,203.083-42.768
					c-9.062-178.123-63.701-278.741-121.805-339.36C2218.384,2129.784,2120.881,2131.577,2091.231,2035.551z"/>
			</g>
			
				<linearGradient id="SVGID_00000135666147411930470280000010311220670185238173_" gradientUnits="userSpaceOnUse" x1="1943.088" y1="1551.6136" x2="2555.3745" y2="2693.0352">
				<stop  offset="0" style="stop-color:#FF9085"/>
				<stop  offset="1" style="stop-color:#FB6FBB"/>
			</linearGradient>
			
				<ellipse style="fill:url(#SVGID_00000135666147411930470280000010311220670185238173_);" cx="2213.303" cy="2055.347" rx="31.262" ry="32.828"/>
			
				<linearGradient id="SVGID_00000136378376981060502110000000554809451221200294_" gradientUnits="userSpaceOnUse" x1="1997.3309" y1="1522.5149" x2="2609.6189" y2="2663.9392">
				<stop  offset="0" style="stop-color:#FF9085"/>
				<stop  offset="1" style="stop-color:#FB6FBB"/>
			</linearGradient>
			<path style="fill:url(#SVGID_00000136378376981060502110000000554809451221200294_);" d="M2213.303,1793.739
				c-10.911,0-19.756,9.288-19.756,20.746v221.289c0,11.458,8.845,20.746,19.756,20.746c10.911,0,19.756-9.288,19.756-20.746
				v-221.289C2233.06,1803.027,2224.215,1793.739,2213.303,1793.739z"/>
			
				<linearGradient id="SVGID_00000170239033865209488250000003220206698549280389_" gradientUnits="userSpaceOnUse" x1="1772.7816" y1="1642.9696" x2="2385.0693" y2="2784.3931">
				<stop  offset="0" style="stop-color:#FF9085"/>
				<stop  offset="1" style="stop-color:#FB6FBB"/>
			</linearGradient>
			<path style="fill:url(#SVGID_00000170239033865209488250000003220206698549280389_);" d="M2211.137,2060.236L2211.137,2060.236
				c-4.257-4.988-11.56-5.408-16.31-0.937l-266.039,255.62c-4.75,4.471-5.15,12.138-0.893,17.127
				c4.257,4.988,11.56,5.408,16.31,0.938l266.039-255.62C2214.995,2072.893,2215.395,2065.225,2211.137,2060.236z"/>
		</g>
		<g>
			<path style="fill:#FFFFFF;" d="M1644.742,2740.634c23.312-12.92,16.487-86.243-15.139-137.766
				c-44.906-73.157-143.325-108.081-163.502-86.292c-20.649,22.298,38.79,106.002,48.446,119.599
				C1549.572,2685.5,1617.168,2755.917,1644.742,2740.634z"/>
			
				<linearGradient id="SVGID_00000027562156109208205310000006541682915391974291_" gradientUnits="userSpaceOnUse" x1="1194.1274" y1="3318.3196" x2="1264.693" y2="3318.3196" gradientTransform="matrix(-0.9642 0.2651 0.2651 0.9642 2192.8501 -308.9189)">
				<stop  offset="0" style="stop-color:#444B8C"/>
				<stop  offset="0.9964" style="stop-color:#26264F"/>
			</linearGradient>
			<path style="fill:url(#SVGID_00000027562156109208205310000006541682915391974291_);" d="M1855.585,3207.96
				c-4.354,4.807-5.345,13.659-1.56,18.02c3.72,4.287,9.316,1.072,25.183,1.545c16.997,0.509,21.435,4.522,32.985,1.336
				c4.666-1.29,12.908-4.418,12.751-7.751c-0.11-2.343-4.306-3.553-18.319-8.248c-19.892-6.663-19.804-7.027-24.028-7.726
				C1871.987,3203.378,1861.334,3201.613,1855.585,3207.96z"/>
			
				<linearGradient id="SVGID_00000077305464073669871080000005107719284935864508_" gradientUnits="userSpaceOnUse" x1="1000.4667" y1="3312.823" x2="1030.2238" y2="3251.2327" gradientTransform="matrix(-0.9802 0.1979 0.1979 0.9802 2204.0603 -227.1835)">
				<stop  offset="0" style="stop-color:#FFC444"/>
				<stop  offset="0.9964" style="stop-color:#F36F56"/>
			</linearGradient>
			<path style="fill:url(#SVGID_00000077305464073669871080000005107719284935864508_);" d="M1866.475,3180.238l8.525,28.357
				c-0.645,1.521-9.311,6.595-16.749,3.381l-12.661-27.523L1866.475,3180.238z"/>
			
				<linearGradient id="SVGID_00000072984119228678217020000011291919073526657713_" gradientUnits="userSpaceOnUse" x1="1304.6763" y1="3313.7708" x2="1375.2417" y2="3313.7708" gradientTransform="matrix(-0.9642 0.2651 0.2651 0.9642 2192.8501 -308.9189)">
				<stop  offset="0" style="stop-color:#444B8C"/>
				<stop  offset="0.9964" style="stop-color:#26264F"/>
			</linearGradient>
			<path style="fill:url(#SVGID_00000072984119228678217020000011291919073526657713_);" d="M1747.789,3232.88
				c-4.354,4.808-5.346,13.66-1.56,18.021c3.72,4.288,9.315,1.073,25.183,1.545c16.997,0.508,21.435,4.522,32.985,1.336
				c4.667-1.29,12.908-4.418,12.751-7.751c-0.11-2.343-4.306-3.552-18.319-8.247c-19.891-6.664-19.803-7.028-24.028-7.728
				C1764.191,3228.299,1753.537,3226.534,1747.789,3232.88z"/>
			
				<linearGradient id="SVGID_00000111899576246129493060000013626907167023775624_" gradientUnits="userSpaceOnUse" x1="1111.0659" y1="3315.9172" x2="1140.8229" y2="3254.3271" gradientTransform="matrix(-0.9802 0.1979 0.1979 0.9802 2204.0603 -227.1835)">
				<stop  offset="0" style="stop-color:#FFC444"/>
				<stop  offset="0.9964" style="stop-color:#F36F56"/>
			</linearGradient>
			<path style="fill:url(#SVGID_00000111899576246129493060000013626907167023775624_);" d="M1758.678,3205.159l8.525,28.357
				c-0.644,1.521-9.311,6.595-16.749,3.38l-12.66-27.523L1758.678,3205.159z"/>
			<path style="fill:#FFFFFF;" d="M1279.131,2521.317c27.046-9.217,68.379-19.928,119.288-19.922
				c57.318,0.007,103.351,0.012,135.135,27.102c77.141,65.748-9.199,223.229,35.03,339.852c4.844,12.773,18.941,53.27,6.68,96.946
				c-2.26,8.051-6.914,15.027-14.872,26.836c-46.724,69.321-177.972,75.002-238.096,14.9c-31.776-31.765-60.346-25.948-61.11-62.192
				C1258.172,2801.771,1280.37,2659.064,1279.131,2521.317z"/>
			
				<linearGradient id="SVGID_00000097466648822926480570000008095123684488763543_" gradientUnits="userSpaceOnUse" x1="1322.9021" y1="2914.2119" x2="1493.1866" y2="2698.592">
				<stop  offset="0" style="stop-color:#AA80F9"/>
				<stop  offset="0.9964" style="stop-color:#6165D7"/>
			</linearGradient>
			<path style="opacity:0.3;fill:url(#SVGID_00000097466648822926480570000008095123684488763543_);" d="M1336.242,2703.921
				c-10.927-29.916,0.396-64.16-23.966-79.109c-8.927-5.478-20.023-7.799-32.109-7.533c1.446,105.154,3.516,210.208,6.073,319.949
				c0.845,36.246,5.377,38.04,40.512,69.805c40.71,36.804,110.865,48.82,171.037,36.778
				c-78.805-48.464-135.033-98.667-126.98-141.699c9.378-50.114,101.152-64.912,97.459-100.542
				C1464.354,2763.807,1360.127,2769.32,1336.242,2703.921z"/>
			<path style="fill:#FFFFFF;" d="M1304.195,2524.553c-26.494-17.887-90.326,27.221-125.711,66.927
				c-16.447,18.453-73.708,82.701-59.481,169.01c2.318,14.065,12.992,79.823,69.284,112.033
				c50.401,28.841,118.458,21.422,172.986-19.425c7.451-6.613,14.904-13.223,22.356-19.837c7.332-7.924,14.663-15.847,21.994-23.773
				c-11.525-9.587-31.106-23.415-58.605-32.288c-41.904-13.521-69.453,6.539-79.474-6.667
				c-12.339-16.26,25.224-46.552,35.081-115.47C1305.283,2636.466,1333.788,2544.532,1304.195,2524.553z"/>
			
				<linearGradient id="SVGID_00000023979516328535132500000015810550930906588602_" gradientUnits="userSpaceOnUse" x1="1542.9436" y1="3162.8484" x2="1780.0175" y2="2862.6577">
				<stop  offset="0" style="stop-color:#FF9085"/>
				<stop  offset="1" style="stop-color:#FB6FBB"/>
			</linearGradient>
			<path style="fill:url(#SVGID_00000023979516328535132500000015810550930906588602_);" d="M1347.656,2974.573
				c-17.508,56.976,14.908,33.813,80.927,1.288c69.531-34.256,221.519-83.449,287.011-19.013
				c48.776,47.991,14.272,123.871,89.735,207.394c13.293,14.712,25.892,24.988,33.765,30.951
				c13.6-5.627,27.199-11.254,40.799-16.882c5.336-31.16,22.142-151.282-53.461-258.864c-18.279-26.01-53.048-75.948-112.55-97.073
				C1553.02,2765.262,1363.801,2922.025,1347.656,2974.573z"/>
			
				<linearGradient id="SVGID_00000152243495778581291810000008841871775828745145_" gradientUnits="userSpaceOnUse" x1="1684.1077" y1="2885.5886" x2="1409.0571" y2="3190.2603">
				<stop  offset="0" style="stop-color:#FF9085"/>
				<stop  offset="1" style="stop-color:#FB6FBB"/>
			</linearGradient>
			<path style="fill:url(#SVGID_00000152243495778581291810000008841871775828745145_);" d="M1283.465,2921.415
				c-11.335,32.726-1.133,70.337,17.388,93.704c41.112,51.872,133.408,46.415,191.056,27.259
				c70.144-23.307,85.811-65.753,113.395-55.32c42.863,16.212,12.365,121.761,89.736,207.395
				c13.293,14.712,25.892,24.986,33.765,30.952c13.599-5.629,27.199-11.256,40.799-16.885
				c10.272-72.559,2.766-130.697-5.056-167.831c-8.97-42.584-17.005-80.734-47.01-117.526
				c-37.279-45.711-85.992-61.765-113.944-70.579C1485.339,2815.294,1312.915,2836.384,1283.465,2921.415z"/>
			<g>
				
					<linearGradient id="SVGID_00000090262215492318084080000007344476827383220374_" gradientUnits="userSpaceOnUse" x1="1554.6973" y1="2964.9187" x2="1516.0793" y2="2855.501">
					<stop  offset="0" style="stop-color:#311944"/>
					<stop  offset="1" style="stop-color:#893976"/>
				</linearGradient>
				<polygon style="fill:url(#SVGID_00000090262215492318084080000007344476827383220374_);" points="1666.894,2832.937 
					1347.656,2828.171 1432.546,2869.141 1667.711,2853.75 				"/>
				
					<linearGradient id="SVGID_00000045578864507127282410000015196278236764912816_" gradientUnits="userSpaceOnUse" x1="1385.9924" y1="2806.3892" x2="1400.1523" y2="2904.2217">
					<stop  offset="0" style="stop-color:#311944"/>
					<stop  offset="1" style="stop-color:#893976"/>
				</linearGradient>
				<path style="fill:url(#SVGID_00000045578864507127282410000015196278236764912816_);" d="M1336.389,2836.655v0.003
					c0,5.974,3.739,11.311,9.354,13.352l102.008,39.99l0.464-27.725l-100.559-34.103
					C1342.012,2826.55,1336.389,2830.785,1336.389,2836.655z"/>
			</g>
			
				<linearGradient id="SVGID_00000179632073104755696400000017937222034074792329_" gradientUnits="userSpaceOnUse" x1="1381.7451" y1="2827.8228" x2="1461.7736" y2="2827.8228">
				<stop  offset="0" style="stop-color:#FFC444"/>
				<stop  offset="0.9964" style="stop-color:#F36F56"/>
			</linearGradient>
			<path style="fill:url(#SVGID_00000179632073104755696400000017937222034074792329_);" d="M1381.965,2823.842
				c-1.959-0.437,9.546-23.36,18.577-20.714c9.029,2.646,53.2,28.244,57.215,38.786c4.016,10.54,4.016,10.54,4.016,10.54
				s-19.267,1.506-31.217-2.509C1418.606,2845.929,1397.899,2827.394,1381.965,2823.842z"/>
			<g>
				<g>
					
						<linearGradient id="SVGID_00000134931722828483570480000012949340247901766801_" gradientUnits="userSpaceOnUse" x1="1666.5647" y1="2814.9578" x2="1591.2737" y2="2708.0444">
						<stop  offset="0" style="stop-color:#444B8C"/>
						<stop  offset="0.9964" style="stop-color:#26264F"/>
					</linearGradient>
					<path style="fill:url(#SVGID_00000134931722828483570480000012949340247901766801_);" d="M1456.682,2667.75l-22.501,204.886
						c-0.777,7.07,9.12,17.602,16.224,17.266l330.11-20.265c5.425-0.258,9.941-4.25,10.859-9.602l41.433-197.884
						c1.237-7.201-11.708-14.638-19.012-14.435l-345.933,9.727C1462.084,2657.606,1457.313,2662.005,1456.682,2667.75z"/>
					
						<linearGradient id="SVGID_00000011001466803420650100000016030215177177677208_" gradientUnits="userSpaceOnUse" x1="1522.1431" y1="2991.897" x2="1686.9138" y2="2657.2068">
						<stop  offset="0" style="stop-color:#311944"/>
						<stop  offset="1" style="stop-color:#893976"/>
					</linearGradient>
					<path style="fill:url(#SVGID_00000011001466803420650100000016030215177177677208_);" d="M1464.227,2673.723l-22.504,204.888
						c-0.775,7.07,4.949,13.16,12.053,12.825l334.284-15.825c5.424-0.257,9.939-4.25,10.859-9.601l34.151-198.789
						c1.237-7.203-4.427-13.735-11.731-13.529l-345.934,9.727C1469.629,2663.58,1464.857,2667.979,1464.227,2673.723z"/>
				</g>
				
					<linearGradient id="SVGID_00000148636461909235774600000011161627328213853839_" gradientUnits="userSpaceOnUse" x1="1441.653" y1="2777.082" x2="1803.6323" y2="2777.082">
					<stop  offset="0" style="stop-color:#311944"/>
					<stop  offset="1" style="stop-color:#893976"/>
				</linearGradient>
				<path style="opacity:0.3;fill:url(#SVGID_00000148636461909235774600000011161627328213853839_);" d="M1660.519,2827.601
					c-29.189-12.371-18.886-35.963-53.354-65.359c-45.471-38.781-91.819-21.963-108.044-52.021
					c-5.052-9.362-7.466-23.929,1.335-47.506l-25.05,0.704c-5.776,0.161-10.548,4.561-11.179,10.305l-22.504,204.888
					c-0.774,7.069,4.95,13.16,12.053,12.825l334.284-15.825c5.424-0.257,9.939-4.249,10.859-9.601l4.713-27.431
					c-10.143-5.645-22.263-10.777-36.405-13.646C1718.185,2814.986,1694.123,2841.844,1660.519,2827.601z"/>
			</g>
			<g>
				
					<linearGradient id="SVGID_00000000917471610591868850000011008955149076916668_" gradientUnits="userSpaceOnUse" x1="1995.8544" y1="2156.6563" x2="2003.8258" y2="1944.3241" gradientTransform="matrix(0.917 0.3988 -0.3988 0.917 399.6047 -184.8945)">
					<stop  offset="0" style="stop-color:#FFC444"/>
					<stop  offset="0.9964" style="stop-color:#F36F56"/>
				</linearGradient>
				<path style="fill:url(#SVGID_00000000917471610591868850000011008955149076916668_);" d="M1403.772,2423.086
					c0.177,21.25-2.193,38.102-4.436,49.643c-2.569,13.223-4.42,16.639-6.782,19.411c-3.556,4.174-8.946,7.673-39.395,15.224
					c-16.57,4.108-18.702,3.996-19.068,5.641c-1.785,8.022,43.399,35.36,90.078,28.772c28.569-4.033,54.563-20.332,52.968-28.891
					c-1.605-8.614-30.144-3.991-38.65-19.575c-5.916-10.842,0.716-26.232,8.556-38.977
					C1439.45,2440.104,1411.364,2437.313,1403.772,2423.086z"/>
				<g>
					
						<linearGradient id="SVGID_00000087374652135516378860000015400461480248363925_" gradientUnits="userSpaceOnUse" x1="538.5024" y1="2305.1392" x2="484.4571" y2="2167.874" gradientTransform="matrix(-0.9687 -0.2485 -0.2485 0.9687 2456.1904 427.3052)">
						<stop  offset="0" style="stop-color:#311944"/>
						<stop  offset="1" style="stop-color:#6B3976"/>
					</linearGradient>
					<path style="fill:url(#SVGID_00000087374652135516378860000015400461480248363925_);" d="M1463.724,2450.106
						c8.782-6.967,13.125-21.994,8.098-33.517c-4.326-9.916-14.201-13.74-20.113-16.033c-17.131-6.639-41.337-5.07-53.323,9.167
						c-7.102,8.438-2.379,31.041-1.76,35.045c0.702,4.528,3.532,6.756,5.686,10.602c2.984,5.334,7.629,13.788,15.139,27.859
						c1.685-3.136,4.001-6.958,7.135-10.939c1.207-1.532,6.002-7.494,12.056-11.899
						C1448.77,2451.563,1455.399,2456.71,1463.724,2450.106z"/>
					
						<linearGradient id="SVGID_00000139268807984240434380000018168886156528278699_" gradientUnits="userSpaceOnUse" x1="882.0482" y1="2213.6631" x2="879.5626" y2="2413.9253" gradientTransform="matrix(0.982 0.1887 -0.1887 0.982 983.7829 102.0635)">
						<stop  offset="0" style="stop-color:#FFC444"/>
						<stop  offset="0.9964" style="stop-color:#F36F56"/>
					</linearGradient>
					<path style="fill:url(#SVGID_00000139268807984240434380000018168886156528278699_);" d="M1405.008,2469.801
						c0,0,6.65,22.074,30.16,26.59c21.049,4.043,36.169-41.585,25.515-54.878c-3.556-4.434-12.034-8.099-19.74-7.958
						c-4.552,0.085-6.448,1.472-13.887,1.465c-6.864-0.006-8.494-1.191-10.86-0.064c-2.959,1.411-6.041,5.956-5.523,20.581
						c-2.908-5.026-7.249-7.795-11.02-7.084c-0.602,0.115-2.274,0.711-3.456,1.968
						C1391.923,2454.967,1395.002,2462.998,1405.008,2469.801z"/>
					
						<linearGradient id="SVGID_00000166651343199126410530000003938761216566587036_" gradientUnits="userSpaceOnUse" x1="521.9898" y1="2311.71" x2="467.8918" y2="2174.3108" gradientTransform="matrix(-0.9687 -0.2485 -0.2485 0.9687 2456.1904 427.3052)">
						<stop  offset="0" style="stop-color:#311944"/>
						<stop  offset="1" style="stop-color:#6B3976"/>
					</linearGradient>
					<path style="fill:url(#SVGID_00000166651343199126410530000003938761216566587036_);" d="M1415.982,2431.935
						c0.805,1.004-3.217,3.934-4.817,9.146c-3.107,10.116,4.05,25.095,14.344,28.888c6.086,2.242,8.784-1.075,19.393,0.523
						c6.568,0.99,11.679,3.189,14.836,4.792c0.322,12.067-5.644,22.461-14.497,25.698c-9.531,3.485-18.963-2.592-22.907-5.134
						c-2.638-1.699-11.096-7.126-13.72-16.863c-2.733-10.146,3.594-14.185-0.625-21.665c-2.127-3.773-5.613-6.074-7.819-12.88
						c-0.599-1.849-0.909-3.427-1.076-4.478C1405.909,2435.696,1414.818,2430.48,1415.982,2431.935z"/>
					
						<linearGradient id="SVGID_00000088093752765738333840000004882010740613197447_" gradientUnits="userSpaceOnUse" x1="469.0421" y1="2228.9202" x2="471.8556" y2="2254.0024" gradientTransform="matrix(-0.9687 -0.2485 -0.2485 0.9687 2456.1904 427.3052)">
						<stop  offset="0" style="stop-color:#FFC444"/>
						<stop  offset="1" style="stop-color:#F36F56"/>
					</linearGradient>
					<path style="fill:url(#SVGID_00000088093752765738333840000004882010740613197447_);" d="M1451.143,2477.487
						c0,0-5.079,1.171-12.69-1.275c-0.37-0.12-0.814-0.118-0.912,0.065c-0.368,0.687,3.732,5.262,8.632,5.168
						c3.48-0.068,6.802-2.479,6.57-3.374C1452.641,2477.695,1451.897,2477.546,1451.143,2477.487z"/>
				</g>
			</g>
		</g>
	</g>
</g>
</svg>
